<svg version="1.1" viewBox="0 0 139.75 27.16" xmlns="http://www.w3.org/2000/svg">
 <defs>
  <style>.cls-1{fill:none;}.cls-12,.cls-2{fill:#fff;}.cls-3{clip-path:url(#clip-path);}.cls-4{fill:#6666cb;}.cls-10,.cls-11,.cls-12,.cls-4,.cls-5,.cls-6,.cls-7,.cls-8,.cls-9{fill-rule:evenodd;}.cls-5{fill:#f60;}.cls-6{fill:red;}.cls-7{fill:#cbcbff;}.cls-8{fill:#33cb66;}.cls-9{fill:#9800cb;}.cls-10{fill:#ffff61;}.cls-11{fill:#fdb900;}</style>
  <clipPath id="diobsm">
   <rect class="cls-1" y=".47" width="29.85" height="26.69"/>
  </clipPath>
  <clipPath id="diobsl">
   <rect class="cls-1" y=".47" width="29.85" height="26.69"/>
  </clipPath>
  <clipPath id="diobsk">
   <rect class="cls-1" y=".47" width="29.85" height="26.69"/>
  </clipPath>
  <clipPath id="diobsj">
   <rect class="cls-1" y=".47" width="29.85" height="26.69"/>
  </clipPath>
  <clipPath id="diobsi">
   <rect class="cls-1" y=".47" width="29.85" height="26.69"/>
  </clipPath>
  <clipPath id="diobsh">
   <rect class="cls-1" y=".47" width="29.85" height="26.69"/>
  </clipPath>
  <clipPath id="diobsg">
   <rect class="cls-1" y=".47" width="29.85" height="26.69"/>
  </clipPath>
  <clipPath id="diobsf">
   <rect class="cls-1" y=".47" width="29.85" height="26.69"/>
  </clipPath>
  <clipPath id="diobse">
   <rect class="cls-1" y=".47" width="29.85" height="26.69"/>
  </clipPath>
  <clipPath id="diobsd">
   <rect class="cls-1" y=".47" width="29.85" height="26.69"/>
  </clipPath>
  <clipPath id="diobsc">
   <rect class="cls-1" y=".47" width="29.85" height="26.69"/>
  </clipPath>
  <clipPath id="diobsb">
   <rect class="cls-1" y=".47" width="29.85" height="26.69"/>
  </clipPath>
  <clipPath id="diobsa">
   <rect class="cls-1" y=".47" width="29.85" height="26.69"/>
  </clipPath>
 </defs>
 <title>logoOBS</title>
 <path class="cls-2" d="m38.94 2.69a5 5 0 0 1 3.79 1.46 6.2 6.2 0 0 1 1.38 4.06 6.63 6.63 0 0 1-1.36 4.22 5.16 5.16 0 0 1-3.84 1.57 5.24 5.24 0 0 1-3.82-1.48 5.89 5.89 0 0 1-1.32-4c0-2.92 1.29-5.83 5.17-5.83zm-1.94 8.71a2.58 2.58 0 0 0 4-0.13 5.22 5.22 0 0 0 0.73-3.09 6.39 6.39 0 0 0-0.27-1.93 2.57 2.57 0 0 0-4.45-1 5 5 0 0 0-0.79 3.14 5 5 0 0 0 0.78 3.01z" style="fill:#212121"/>
 <path class="cls-2" d="m45 2.92h4a5.31 5.31 0 0 1 2.66 0.51 2.72 2.72 0 0 1 1.21 2.3 2.17 2.17 0 0 1-0.63 1.61 2.93 2.93 0 0 1-1.24 0.73 2.58 2.58 0 0 1 2.28 2.63 2.79 2.79 0 0 1-1.58 2.54 7 7 0 0 1-2.7 0.46h-4zm2.21 4.39h1.61c0.66 0 1.85 0 1.85-1.39s-1.13-1.34-1.89-1.34h-1.62zm0 4.66h1.57c1.01 0.03 2.22 0.03 2.22-1.45s-1.41-1.52-2.51-1.52h-1.33z" style="fill:#212121"/>
 <path class="cls-2" d="m56 10.25a1.77 1.77 0 0 0 2 2.05c1.25 0 2-0.6 2-1.51s-0.67-1.12-2-1.45c-2.57-0.64-4-1.4-4-3.27s1.26-3.34 4.26-3.34a4 4 0 0 1 3.24 1.27 3.12 3.12 0 0 1 0.61 2h-2.22a1.6 1.6 0 0 0-1.75-1.64c-1.07 0-1.78 0.58-1.78 1.46s0.79 1.18 2.35 1.57c1.86 0.44 3.7 1 3.7 3.06 0 1.94-1.61 3.5-4.6 3.5-4.13 0-4.16-2.65-4.18-3.7z" style="fill:#212121"/>
 <path class="cls-2" d="m63.3 2.91h7.22v1.76h-4.91v2.57h4.6v1.76h-4.6v2.91h5.08v1.79h-7.39z" style="fill:#212121"/>
 <path class="cls-2" d="m71.49 2.91h4.13a4.81 4.81 0 0 1 3.27 0.73 2.73 2.73 0 0 1 0.94 2.08 2.7 2.7 0 0 1-2.25 2.64c1.62 0.15 1.74 1.07 1.94 2.47s0.25 1.79 0.32 2.09a2 2 0 0 0 0.33 0.78h-2.55c-0.1-0.6-0.43-3.33-0.58-3.75-0.21-0.61-0.78-0.61-1.17-0.61h-2v4.36h-2.38zm2.28 4.72h1.87a1.87 1.87 0 0 0 1.17-0.3 1.5 1.5 0 0 0 0.6-1.26 1.36 1.36 0 0 0-0.57-1.21 2.56 2.56 0 0 0-1.52-0.25h-1.55z" style="fill:#212121"/>
 <path class="cls-2" d="m82.21 3 2.79 8.42 2.87-8.42h2.28l-4 10.75h-2.49l-3.97-10.75z" style="fill:#212121"/>
 <path class="cls-2" d="m95.18 2.91 3.74 10.79h-2.33l-0.77-2.33h-4.27l-0.81 2.33h-2.21l3.9-10.79zm0.06 6.72-1.5-4.63-1.59 4.6z" style="fill:#212121"/>
 <path class="cls-2" d="m100.62 4.7h-3.21v-1.79h8.75v1.79h-3.16v9h-2.33z" style="fill:#212121"/>
 <path class="cls-2" d="m111.09 2.69a5 5 0 0 1 3.79 1.46 6.19 6.19 0 0 1 1.37 4.06 6.62 6.62 0 0 1-1.35 4.22 5.61 5.61 0 0 1-7.66 0.06 5.91 5.91 0 0 1-1.33-4c0-2.89 1.3-5.8 5.18-5.8zm-2 8.71a2.57 2.57 0 0 0 4-0.13 5.2 5.2 0 0 0 0.74-3.09 6.39 6.39 0 0 0-0.27-1.93 2.5 2.5 0 0 0-2.47-1.91 2.45 2.45 0 0 0-2 0.91 5 5 0 0 0-0.79 3.14 4.89 4.89 0 0 0 0.84 3.01zm2.14-9.24h-1.19l1.29-2.16h2z" style="fill:#212121"/>
 <path class="cls-2" d="m117 2.91h4.13a4.79 4.79 0 0 1 3.27 0.73 2.73 2.73 0 0 1 0.94 2.08 2.7 2.7 0 0 1-2.25 2.64c1.62 0.15 1.74 1.07 1.94 2.47a18.22 18.22 0 0 0 0.33 2.09 2.15 2.15 0 0 0 0.32 0.78h-2.55c-0.1-0.6-0.43-3.33-0.58-3.75-0.21-0.61-0.78-0.61-1.16-0.61h-2v4.36h-2.39zm2.28 4.72h1.87a1.9 1.9 0 0 0 1.18-0.3 1.52 1.52 0 0 0 0.67-1.26 1.36 1.36 0 0 0-0.56-1.21 2.59 2.59 0 0 0-1.53-0.25h-1.55z" style="fill:#212121"/>
 <path class="cls-2" d="m126.3 2.88h2.32v10.82h-2.32z" style="fill:#212121"/>
 <path class="cls-2" d="m134.58 2.69a5 5 0 0 1 3.79 1.46 6.2 6.2 0 0 1 1.38 4.06 6.63 6.63 0 0 1-1.36 4.22 5.16 5.16 0 0 1-3.84 1.57 5.22 5.22 0 0 1-3.82-1.48 5.91 5.91 0 0 1-1.33-4c0-2.92 1.3-5.83 5.18-5.83zm-2 8.71a2.58 2.58 0 0 0 4-0.13 5.3 5.3 0 0 0 0.73-3.09 6.39 6.39 0 0 0-0.27-1.93 2.57 2.57 0 0 0-4.45-1 5 5 0 0 0-0.79 3.14 5 5 0 0 0 0.83 3.01z" style="fill:#212121"/>
 <path class="cls-2" d="m34.22 16.07h3.57a5.5 5.5 0 0 1 0.88 0.13 3.36 3.36 0 0 1 0.89 0.35 2.93 2.93 0 0 1 0.77 0.65 4.25 4.25 0 0 1 0.83 1.52 6.14 6.14 0 0 1 0.26 1.83 5.19 5.19 0 0 1-0.42 2.25 3.87 3.87 0 0 1-1 1.41 2.76 2.76 0 0 1-1.3 0.6 12.34 12.34 0 0 1-2 0.13h-2.48zm1.23 7.86h1.2a7.64 7.64 0 0 0 1.36-0.1 2.31 2.31 0 0 0 1-0.39 2.45 2.45 0 0 0 0.64-0.69 3.08 3.08 0 0 0 0.35-0.75 4.75 4.75 0 0 0 0.14-0.72v-0.62-0.51c0-0.2-0.06-0.43-0.11-0.7a3.88 3.88 0 0 0-0.26-0.82 3 3 0 0 0-0.47-0.73 2.16 2.16 0 0 0-1-0.61 5 5 0 0 0-1.41-0.16h-1.44z" style="fill:#212121"/>
 <path class="cls-2" d="m42.39 16.07h5.61v1h-4.38v2.76h4.12v1h-4.12v2.94h4.43v1.09h-5.66z" style="fill:#212121"/>
 <path class="cls-2" d="m52.34 16.07h5.28v1h-4v2.76h3.8v1h-3.8v4h-1.28z" style="fill:#212121"/>
 <path class="cls-2" d="m58.14 19.68a6 6 0 0 1 0.17-0.91 4.69 4.69 0 0 1 0.35-0.92 3.4 3.4 0 0 1 0.57-0.83 3.65 3.65 0 0 1 0.72-0.59 3.86 3.86 0 0 1 0.77-0.37 4.09 4.09 0 0 1 0.75-0.18 6.09 6.09 0 0 1 0.72-0.05 3.78 3.78 0 0 1 2.94 1.17 4.92 4.92 0 0 1 1.06 3.41 7.3 7.3 0 0 1-0.19 1.79 4.26 4.26 0 0 1-0.68 1.5 3.23 3.23 0 0 1-1.32 1.06 5.09 5.09 0 0 1-3.81 0 3.21 3.21 0 0 1-1.24-1 3.74 3.74 0 0 1-0.68-1.45 7.12 7.12 0 0 1-0.21-1.78 6.49 6.49 0 0 1 0.08-0.85zm1.41 2.32a3.25 3.25 0 0 0 0.61 1.25 2.08 2.08 0 0 0 0.87 0.63 3.25 3.25 0 0 0 1.1 0.18 3 3 0 0 0 1.09-0.19 2.06 2.06 0 0 0 0.87-0.62 2.8 2.8 0 0 0 0.43-0.71 4.27 4.27 0 0 0 0.24-0.8 6.7 6.7 0 0 0 0.1-0.73v-0.65a6.83 6.83 0 0 0-0.11-1.36 3.42 3.42 0 0 0-0.45-1.12 2.08 2.08 0 0 0-0.84-0.74 2.86 2.86 0 0 0-1.26-0.25 2.82 2.82 0 0 0-1.36 0.29 2.32 2.32 0 0 0-0.84 0.82 3.43 3.43 0 0 0-0.46 1.15 6.74 6.74 0 0 0-0.13 1.38 7 7 0 0 0 0.14 1.47z" style="fill:#212121"/>
 <path class="cls-2" d="m67.18 16.07h3.17a7.59 7.59 0 0 1 1.09 0.07 2.36 2.36 0 0 1 0.94 0.34 2 2 0 0 1 0.74 0.78 2.15 2.15 0 0 1 0.25 1 2.29 2.29 0 0 1-0.17 0.87 2 2 0 0 1-0.46 0.7 1.87 1.87 0 0 1-0.51 0.38 2.41 2.41 0 0 1-0.53 0.2 1.77 1.77 0 0 1 1 0.53 2.3 2.3 0 0 1 0.39 1.18v0.05c0.07 0.63 0.15 1.14 0.22 1.52a7.38 7.38 0 0 0 0.32 1.22h-1.34a5.73 5.73 0 0 1-0.21-0.88c-0.06-0.36-0.12-0.78-0.17-1.27v-0.2a5 5 0 0 0-0.16-0.82 1.25 1.25 0 0 0-0.31-0.5 1.23 1.23 0 0 0-0.55-0.26 4.41 4.41 0 0 0-0.92-0.08h-1.58v4h-1.21zm1.19 3.82h1.94 0.62a1.37 1.37 0 0 0 0.55-0.16 1.28 1.28 0 0 0 0.41-0.4 1.36 1.36 0 0 0 0.19-0.75 1.56 1.56 0 0 0-0.19-0.81 1.26 1.26 0 0 0-0.48-0.44 1.94 1.94 0 0 0-0.54-0.16 5 5 0 0 0-0.56 0h-1.94z" style="fill:#212121"/>
 <path class="cls-2" d="m76.86 24.94v-7.83h-3v-1h7.14v1h-3v7.83z" style="fill:#212121"/>
 <path class="cls-2" d="m83.39 16.07h1.31l3.59 8.87h-1.29l-1-2.31h-4.12l-1 2.31h-1.22zm-1.12 5.56h3.36l-1.63-4.35z" style="fill:#212121"/>
 <path class="cls-2" d="m89 16.07h1.21v7.77h4.13v1.1h-5.34z" style="fill:#212121"/>
 <path class="cls-2" d="m95 16.07h5.56v1h-4.35v2.76h4.13v1h-4.13v2.94h4.44v1.09h-5.65z" style="fill:#212121"/>
 <path class="cls-2" d="m101.35 23.71 5.12-6.56h-5v-1.08h6.45v1.21l-5.17 6.57h5.25v1.09h-6.67z" style="fill:#212121"/>
 <path class="cls-2" d="m112.06 16.07h1.31l3.63 8.87h-1.34l-1-2.31h-4.11l-1 2.31h-1.26zm-1.12 5.56h3.36l-1.64-4.35z" style="fill:#212121"/>
 <path class="cls-4" d="m1.05 7.87 6.62 2.27 0.51 0.45a7.55 7.55 0 0 0-0.92 3.63l-7.26-2.46zm21.54 7.37 7.26 2.48-1.06 3.88-4.79-1.6-2.27-2a7.64 7.64 0 0 0 0.89-2.68" clip-path="url(#diobsa)"/>
 <path class="cls-5" d="m3.3 22 3.82-3 0.9-0.22-0.67 3.22 2.76-0.85-4.6 3.67zm19.35-15.45 3.35-2.71 2.25 2.76-5.25 4.17-1 0.23 0.18 0.44a7.93 7.93 0 0 0-0.61-1.24h0.2z" clip-path="url(#diobsb)"/>
 <path class="cls-6" d="m12.58 26.9 0.19-1.9 0.12 0.05 1.57-3.14h0.5 0.75l0.8 2.47-0.29 2.82" clip-path="url(#diobsc)"/>
 <polygon class="cls-6" points="13.13 21.68 13.11 21.68" clip-path="url(#diobsd)"/>
 <path class="cls-6" d="m16.31 21.79 0.47-0.1-0.47 0.1" clip-path="url(#diobse)"/>
 <path class="cls-6" d="m14.65 6.53 0.52-5 3.64 0.27-0.32 3.17-1 2a7.54 7.54 0 0 0-2.49-0.45h-0.31" clip-path="url(#diobsf)"/>
 <path class="cls-7" d="m2.27 16 5-1.26a7.66 7.66 0 0 0 1 3.29h-0.11l-0.16 0.71-4.72 1.18zm19.73-5 4.33-1 1 3.94-4.74 1.19a8.31 8.31 0 0 0 0-0.87 7.64 7.64 0 0 0-0.59-3.26" clip-path="url(#diobsg)"/>
 <path class="cls-8" d="m6.72 4.56 3 2.65-2.45-0.69 1 3.65h0.19c-0.08 0.13-0.16 0.26-0.23 0.39l-3.86-3.37zm15 13.36 4 3.55-2.39 2.63-3.25-2.9 2.57 0.76-0.89-4h-0.1v-0.07" clip-path="url(#diobsh)"/>
 <path class="cls-9" d="m9.33 23.25 1.13-2.25 0.42-0.13v-0.11a7.63 7.63 0 0 0 3.53 1.13l-1.52 3.11zm8.15-16.25 1.52-3.15 3.56 1.78-0.52 1-3.13 0.81-0.06 0.12a7.75 7.75 0 0 0-1.37-0.56" clip-path="url(#diobsi)"/>
 <path class="cls-10" d="m17.29 26.75-1.58-4.88a7.68 7.68 0 0 0 3.34-1.14l1.63 5.05-3.39 1" clip-path="url(#diobsj)"/>
 <path class="cls-10" d="m11.09 7.57-2-6.13 3.39-1 2 6.07a7.73 7.73 0 0 0-3.37 1" clip-path="url(#diobsk)"/>
 <path class="cls-11" d="m15 21.91a7.61 7.61 0 0 0 3.93-1.09l-0.57-1.56h-6.79l-0.6 1.45a7.61 7.61 0 0 0 4 1.15m6.69-3.86a7.69 7.69 0 0 0 1-3.78 7.58 7.58 0 0 0-1.11-4l-1.88 0.27-0.05 7.19zm-2.78-10.4a7.64 7.64 0 0 0-7.9 0l0.5 1.49h6.73zm-10.47 2.6a7.64 7.64 0 0 0-0.13 7.8l2-0.31v-7.14z" clip-path="url(#diobsl)"/>
 <polygon class="cls-12" points="19.61 17.7 21.76 18 22.66 21.96 18.91 20.86 18.32 19.26 11.53 19.31 10.88 20.87 7.35 21.96 8.17 18.03 10.3 17.7 10.28 10.56 8.22 10.17 7.27 6.52 10.96 7.57 11.48 9.13 18.21 9.18 18.93 7.48 22.66 6.52 21.74 10.21 19.66 10.51" clip-path="url(#diobsm)"/>
</svg>
